{"accessors":[{"bufferView":0,"componentType":5126,"count":156,"max":[0.16898471117019653,0.271150141954422,0.04724949598312378],"min":[-0.16875863075256348,-0.28057587146759033,-0.04714953154325485],"normalized":false,"type":"VEC3"},{"bufferView":1,"componentType":5126,"count":156,"max":[1.0,4.5779161155223846e-05,1.0,-1.0],"min":[-1.0,0.0,-1.0,-1.0],"normalized":false,"type":"VEC4"},{"bufferView":2,"componentType":5126,"count":156,"max":[0.9882106781005859,0.6289907693862915,0.9910200238227844],"min":[-0.9882137179374695,-0.8501756191253662,-0.9914646148681641],"normalized":false,"type":"VEC3"},{"bufferView":3,"componentType":5126,"count":156,"max":[0.8608438968658447,0.3913063108921051],"min":[0.1553076207637787,0.17414672672748566],"normalized":false,"type":"VEC2"},{"bufferView":4,"componentType":5121,"count":156,"max":[155],"min":[0],"normalized":false,"type":"SCALAR"}],"asset":{"generator":"Godot Engine v4.7.2.stable.official@ed1daf0bf001b61586d9930840f2f1394092c079","version":"2.0"},"bufferViews":[{"buffer":0,"byteLength":1872,"byteStride":12,"target":34962},{"buffer":0,"byteLength":2496,"byteOffset":1872,"byteStride":16,"target":34962},{"buffer":0,"byteLength":1872,"byteOffset":4368,"byteStride":12,"target":34962},{"buffer":0,"byteLength":1248,"byteOffset":6240,"byteStride":8,"target":34962},{"buffer":0,"byteLength":156,"byteOffset":7488,"target":34963}],"buffers":[{"byteLength":7644,"uri":"plant_seed0.bin"}],"extensions":{"OMI_physics_shape":{"shapes":[{"capsule":{"height":0.5615234375,"radius":0.20361328125},"type":"capsule"}]}},"extensionsUsed":["GODOT_single_root","OMI_physics_body","OMI_physics_shape"],"materials":[{"pbrMetallicRoughness":{"baseColorFactor":[0.3318897485733032,0.6559306383132935,0.1376124620437622,1.0],"metallicFactor":0.0,"roughnessFactor":1.0}}],"meshes":[{"name":"CSGSphere3D2","primitives":[{"attributes":{"NORMAL":2,"POSITION":0,"TANGENT":1,"TEXCOORD_0":3},"indices":4,"material":0,"mode":4}]}],"nodes":[{"children":[1,6,8],"name":"PlantSeed"},{"children":[2,3,4,5],"mesh":0,"name":"CSGSphere3D2"},{"name":"CSGPolygon3D","translation":[-0.5206331014633179,-0.5438266396522522,0.6307480931282043]},{"name":"CSGPolygon3D2","rotation":[0.0,1.0,0.0,-4.371138828673793e-08],"translation":[0.5208591222763062,-0.5438266396522522,-0.6479794383049011]},{"name":"CSGPolygon3D3","rotation":[0.0,0.7071067690849304,0.0,0.7071067690849304],"translation":[0.24663853645324707,-0.3835318684577942,0.5501382946968079]},{"name":"CSGPolygon3D4","rotation":[0.0,-0.7071067094802856,0.0,0.7071068286895752],"translation":[-0.2614372968673706,-0.3835318684577942,-0.5510002374649048]},{"children":[7],"extensions":{"OMI_physics_body":{"trigger":{"nodes":[7.0]}}},"name":"Area3D"},{"extensions":{"OMI_physics_body":{"trigger":null}},"name":"CollisionShape3D"},{"name":"InteractionLabel","translation":[0.0,0.5406643748283386,0.0]}],"scene":0,"scenes":[{"nodes":[0]}]}