{"accessors":[{"bufferView":0,"componentType":5126,"count":171,"max":[0.65771484375,4.311733245849609,0.65771484375],"min":[-0.65771484375,-5.670331954956055,-0.65771484375],"normalized":false,"type":"VEC3"},{"bufferView":1,"componentType":5126,"count":171,"max":[1.0,0.13959281146526337,1.0,1.0],"min":[-1.0,-0.1785535216331482,-1.0,-1.0],"normalized":false,"type":"VEC4"},{"bufferView":2,"componentType":5126,"count":171,"max":[1.0,0.03832133114337921,1.0],"min":[-1.0,-1.0,-0.9906042814254761],"normalized":false,"type":"VEC3"},{"bufferView":3,"componentType":5126,"count":171,"max":[1.0,0.8802011013031006],"min":[0.0,0.0],"normalized":false,"type":"VEC2"},{"bufferView":4,"componentType":5121,"count":171,"max":[170],"min":[0],"normalized":false,"type":"SCALAR"},{"bufferView":5,"componentType":5126,"count":6189,"max":[2.615671157836914,9.292037963867188,2.5221354961395264],"min":[-2.638803482055664,3.721245527267456,-2.5221354961395264],"normalized":false,"type":"VEC3"},{"bufferView":6,"componentType":5126,"count":6189,"max":[0.9998809099197388,0.7346152067184448,0.9999997019767761,1.0],"min":[-0.9991775751113892,-0.7775939106941223,-1.0,-1.0],"normalized":false,"type":"VEC4"},{"bufferView":7,"componentType":5126,"count":6189,"max":[1.0,0.9996073246002197,0.9986515641212463],"min":[-1.0,-0.9997725486755371,-0.9971967935562134],"normalized":false,"type":"VEC3"},{"bufferView":8,"componentType":5126,"count":6189,"max":[1.0,1.0],"min":[0.0,0.0],"normalized":false,"type":"VEC2"},{"bufferView":9,"componentType":5123,"count":6189,"max":[6188],"min":[0],"normalized":false,"type":"SCALAR"},{"bufferView":10,"componentType":5126,"count":180,"max":[0.27294921875,1.2971447706222534,0.27294921875],"min":[-0.27294921875,-1.2971447706222534,-0.27294921875],"normalized":false,"type":"VEC3"},{"bufferView":11,"componentType":5126,"count":180,"max":[1.0,0.12726566195487976,0.9846017360687256,1.0],"min":[-0.9906066060066223,-0.13431790471076965,-1.0,-1.0],"normalized":false,"type":"VEC4"},{"bufferView":12,"componentType":5126,"count":180,"max":[1.0,1.0,0.9906066060066223],"min":[-0.9792319536209106,-1.0,-1.0],"normalized":false,"type":"VEC3"},{"bufferView":13,"componentType":5126,"count":180,"max":[1.0,1.0],"min":[0.0,0.0],"normalized":false,"type":"VEC2"},{"bufferView":14,"componentType":5121,"count":180,"max":[179],"min":[0],"normalized":false,"type":"SCALAR"},{"bufferView":15,"componentType":5126,"count":6204,"max":[1.2041447162628174,3.4984898567199707,1.097128987312317],"min":[-1.0815519094467163,1.06998872756958,-1.097128987312317],"normalized":false,"type":"VEC3"},{"bufferView":16,"componentType":5126,"count":6204,"max":[0.9998809099197388,0.7346152067184448,1.0,1.0],"min":[-0.9991775751113892,-0.7775939106941223,-1.0,-1.0],"normalized":false,"type":"VEC4"},{"bufferView":17,"componentType":5126,"count":6204,"max":[1.0,0.9996073246002197,0.9986515641212463],"min":[-1.0,-0.9997729063034058,-0.9971967935562134],"normalized":false,"type":"VEC3"},{"bufferView":18,"componentType":5126,"count":6204,"max":[1.0,1.0],"min":[0.0,0.0],"normalized":false,"type":"VEC2"},{"bufferView":19,"componentType":5123,"count":6204,"max":[6203],"min":[0],"normalized":false,"type":"SCALAR"},{"bufferView":20,"componentType":5126,"count":165,"max":[0.32958984375,0.6124945878982544,0.32958984375],"min":[-0.32958984375,-1.9756371974945068,-0.32958984375],"normalized":false,"type":"VEC3"},{"bufferView":21,"componentType":5126,"count":165,"max":[1.0,0.13967829942703247,1.0,1.0],"min":[-1.0,-0.10238496959209442,-1.0,-1.0],"normalized":false,"type":"VEC4"},{"bufferView":22,"componentType":5126,"count":165,"max":[1.0,0.200877383351326,1.0],"min":[-1.0,-1.0,-1.0],"normalized":false,"type":"VEC3"},{"bufferView":23,"componentType":5126,"count":165,"max":[1.0,0.6550118923187256],"min":[0.0,0.0],"normalized":false,"type":"VEC2"},{"bufferView":24,"componentType":5121,"count":165,"max":[164],"min":[0],"normalized":false,"type":"SCALAR"},{"bufferView":25,"componentType":5126,"count":6393,"max":[1.897297739982605,4.237018585205078,1.7654948234558105],"min":[-1.7808347940444946,0.3053920269012451,-1.7654948234558105],"normalized":false,"type":"VEC3"},{"bufferView":26,"componentType":5126,"count":6393,"max":[0.9998809099197388,0.7346152067184448,0.9995573163032532,1.0],"min":[-0.9991775751113892,-0.7775939106941223,-1.0,-1.0],"normalized":false,"type":"VEC4"},{"bufferView":27,"componentType":5126,"count":6393,"max":[1.0,0.9996073246002197,0.9986515641212463],"min":[-1.0,-0.9997729063034058,-0.9971967935562134],"normalized":false,"type":"VEC3"},{"bufferView":28,"componentType":5126,"count":6393,"max":[1.0,1.0],"min":[0.0,0.0],"normalized":false,"type":"VEC2"},{"bufferView":29,"componentType":5123,"count":6393,"max":[6392],"min":[0],"normalized":false,"type":"SCALAR"},{"bufferView":30,"componentType":5126,"count":171,"max":[0.38330078125,1.1827869415283203,0.38330078125],"min":[-0.38330078125,-1.5517834424972534,-0.38330078125],"normalized":false,"type":"VEC3"},{"bufferView":31,"componentType":5126,"count":171,"max":[1.0,0.13971424102783203,1.0,1.0],"min":[-0.9906066060066223,-0.13347430527210236,-1.0,-1.0],"normalized":false,"type":"VEC4"},{"bufferView":32,"componentType":5126,"count":171,"max":[1.0,0.0,0.9906066060066223],"min":[-1.0,-1.0,-1.0],"normalized":false,"type":"VEC3"},{"bufferView":33,"componentType":5126,"count":171,"max":[1.0,0.8811056613922119],"min":[0.0,0.0],"normalized":false,"type":"VEC2"},{"bufferView":34,"componentType":5126,"count":6105,"max":[1.478790521621704,3.791114330291748,1.3619532585144043],"min":[-1.3586264848709106,0.8020679354667664,-1.3619532585144043],"normalized":false,"type":"VEC3"},{"bufferView":35,"componentType":5126,"count":6105,"max":[0.9998809099197388,0.7346152067184448,1.0,1.0],"min":[-0.9991775751113892,-0.7775939106941223,-1.0,-1.0],"normalized":false,"type":"VEC4"},{"bufferView":36,"componentType":5126,"count":6105,"max":[1.0,0.9996073246002197,0.9986515641212463],"min":[-1.0,-0.9997730851173401,-0.9971967935562134],"normalized":false,"type":"VEC3"},{"bufferView":37,"componentType":5126,"count":6105,"max":[1.0,1.0],"min":[0.0,0.0],"normalized":false,"type":"VEC2"},{"bufferView":38,"componentType":5123,"count":6105,"max":[6104],"min":[0],"normalized":false,"type":"SCALAR"},{"bufferView":39,"componentType":5126,"count":171,"max":[0.251953125,1.016418695449829,0.251953125],"min":[-0.251953125,-1.1924340724945068,-0.251953125],"normalized":false,"type":"VEC3"},{"bufferView":40,"componentType":5126,"count":171,"max":[1.0,0.13967829942703247,0.9906065464019775,1.0],"min":[-0.9914865493774414,-0.12422218173742294,-1.0,-1.0],"normalized":false,"type":"VEC4"},{"bufferView":41,"componentType":5126,"count":171,"max":[0.9906069040298462,0.07783392071723938,0.9906066060066223],"min":[-1.0,-1.0,-1.0],"normalized":false,"type":"VEC3"},{"bufferView":42,"componentType":5126,"count":171,"max":[1.0,0.9261949062347412],"min":[0.0,0.0],"normalized":false,"type":"VEC2"},{"bufferView":43,"componentType":5126,"count":6375,"max":[1.478790521621704,3.791114330291748,1.3619532585144043],"min":[-1.3586264848709106,0.7559564709663391,-1.3619532585144043],"normalized":false,"type":"VEC3"},{"bufferView":44,"componentType":5126,"count":6375,"max":[0.9998809099197388,0.7346152067184448,1.0,1.0],"min":[-0.9991775751113892,-0.7775939106941223,-1.0,-1.0],"normalized":false,"type":"VEC4"},{"bufferView":45,"componentType":5126,"count":6375,"max":[1.0,0.9996073246002197,0.9986515641212463],"min":[-1.0,-0.9997730851173401,-0.9971967935562134],"normalized":false,"type":"VEC3"},{"bufferView":46,"componentType":5126,"count":6375,"max":[1.0,1.0],"min":[0.0,0.0],"normalized":false,"type":"VEC2"},{"bufferView":47,"componentType":5123,"count":6375,"max":[6374],"min":[0],"normalized":false,"type":"SCALAR"}],"asset":{"generator":"Godot Engine v4.7.2.stable.official@ed1daf0bf001b61586d9930840f2f1394092c079","version":"2.0"},"bufferViews":[{"buffer":0,"byteLength":2052,"byteStride":12,"target":34962},{"buffer":0,"byteLength":2736,"byteOffset":2052,"byteStride":16,"target":34962},{"buffer":0,"byteLength":2052,"byteOffset":4788,"byteStride":12,"target":34962},{"buffer":0,"byteLength":1368,"byteOffset":6840,"byteStride":8,"target":34962},{"buffer":0,"byteLength":171,"byteOffset":8208,"target":34963},{"buffer":0,"byteLength":74268,"byteOffset":8380,"byteStride":12,"target":34962},{"buffer":0,"byteLength":99024,"byteOffset":82648,"byteStride":16,"target":34962},{"buffer":0,"byteLength":74268,"byteOffset":181672,"byteStride":12,"target":34962},{"buffer":0,"byteLength":49512,"byteOffset":255940,"byteStride":8,"target":34962},{"buffer":0,"byteLength":12378,"byteOffset":305452,"target":34963},{"buffer":0,"byteLength":2160,"byteOffset":317832,"byteStride":12,"target":34962},{"buffer":0,"byteLength":2880,"byteOffset":319992,"byteStride":16,"target":34962},{"buffer":0,"byteLength":2160,"byteOffset":322872,"byteStride":12,"target":34962},{"buffer":0,"byteLength":1440,"byteOffset":325032,"byteStride":8,"target":34962},{"buffer":0,"byteLength":180,"byteOffset":326472,"target":34963},{"buffer":0,"byteLength":74448,"byteOffset":326652,"byteStride":12,"target":34962},{"buffer":0,"byteLength":99264,"byteOffset":401100,"byteStride":16,"target":34962},{"buffer":0,"byteLength":74448,"byteOffset":500364,"byteStride":12,"target":34962},{"buffer":0,"byteLength":49632,"byteOffset":574812,"byteStride":8,"target":34962},{"buffer":0,"byteLength":12408,"byteOffset":624444,"target":34963},{"buffer":0,"byteLength":1980,"byteOffset":636852,"byteStride":12,"target":34962},{"buffer":0,"byteLength":2640,"byteOffset":638832,"byteStride":16,"target":34962},{"buffer":0,"byteLength":1980,"byteOffset":641472,"byteStride":12,"target":34962},{"buffer":0,"byteLength":1320,"byteOffset":643452,"byteStride":8,"target":34962},{"buffer":0,"byteLength":165,"byteOffset":644772,"target":34963},{"buffer":0,"byteLength":76716,"byteOffset":644940,"byteStride":12,"target":34962},{"buffer":0,"byteLength":102288,"byteOffset":721656,"byteStride":16,"target":34962},{"buffer":0,"byteLength":76716,"byteOffset":823944,"byteStride":12,"target":34962},{"buffer":0,"byteLength":51144,"byteOffset":900660,"byteStride":8,"target":34962},{"buffer":0,"byteLength":12786,"byteOffset":951804,"target":34963},{"buffer":0,"byteLength":2052,"byteOffset":964592,"byteStride":12,"target":34962},{"buffer":0,"byteLength":2736,"byteOffset":966644,"byteStride":16,"target":34962},{"buffer":0,"byteLength":2052,"byteOffset":969380,"byteStride":12,"target":34962},{"buffer":0,"byteLength":1368,"byteOffset":971432,"byteStride":8,"target":34962},{"buffer":0,"byteLength":73260,"byteOffset":972800,"byteStride":12,"target":34962},{"buffer":0,"byteLength":97680,"byteOffset":1046060,"byteStride":16,"target":34962},{"buffer":0,"byteLength":73260,"byteOffset":1143740,"byteStride":12,"target":34962},{"buffer":0,"byteLength":48840,"byteOffset":1217000,"byteStride":8,"target":34962},{"buffer":0,"byteLength":12210,"byteOffset":1265840,"target":34963},{"buffer":0,"byteLength":2052,"byteOffset":1278052,"byteStride":12,"target":34962},{"buffer":0,"byteLength":2736,"byteOffset":1280104,"byteStride":16,"target":34962},{"buffer":0,"byteLength":2052,"byteOffset":1282840,"byteStride":12,"target":34962},{"buffer":0,"byteLength":1368,"byteOffset":1284892,"byteStride":8,"target":34962},{"buffer":0,"byteLength":76500,"byteOffset":1286260,"byteStride":12,"target":34962},{"buffer":0,"byteLength":102000,"byteOffset":1362760,"byteStride":16,"target":34962},{"buffer":0,"byteLength":76500,"byteOffset":1464760,"byteStride":12,"target":34962},{"buffer":0,"byteLength":51000,"byteOffset":1541260,"byteStride":8,"target":34962},{"buffer":0,"byteLength":12750,"byteOffset":1592260,"target":34963}],"buffers":[{"byteLength":1605010,"uri":"round_tree_shapes0.bin"}],"extensionsUsed":["GODOT_single_root"],"materials":[{"pbrMetallicRoughness":{"baseColorFactor":[0.1817338615655899,0.023439690470695496,0.0022697821259498596,1.0],"metallicFactor":0.0,"roughnessFactor":1.0}},{"name":"tree_leaves","pbrMetallicRoughness":{"baseColorFactor":[0.14702725410461426,1.0,0.04373502731323242,1.0],"metallicFactor":0.0,"roughnessFactor":1.0}}],"meshes":[{"name":"Trunk2","primitives":[{"attributes":{"NORMAL":2,"POSITION":0,"TANGENT":1,"TEXCOORD_0":3},"indices":4,"material":0,"mode":4},{"attributes":{"NORMAL":7,"POSITION":5,"TANGENT":6,"TEXCOORD_0":8},"indices":9,"material":1,"mode":4}]},{"name":"Branch012","primitives":[{"attributes":{"NORMAL":12,"POSITION":10,"TANGENT":11,"TEXCOORD_0":13},"indices":14,"material":0,"mode":4},{"attributes":{"NORMAL":17,"POSITION":15,"TANGENT":16,"TEXCOORD_0":18},"indices":19,"material":1,"mode":4}]},{"name":"Branch022","primitives":[{"attributes":{"NORMAL":22,"POSITION":20,"TANGENT":21,"TEXCOORD_0":23},"indices":24,"material":0,"mode":4},{"attributes":{"NORMAL":27,"POSITION":25,"TANGENT":26,"TEXCOORD_0":28},"indices":29,"material":1,"mode":4}]},{"name":"Branch042","primitives":[{"attributes":{"NORMAL":32,"POSITION":30,"TANGENT":31,"TEXCOORD_0":33},"indices":4,"material":0,"mode":4},{"attributes":{"NORMAL":36,"POSITION":34,"TANGENT":35,"TEXCOORD_0":37},"indices":38,"material":1,"mode":4}]},{"name":"Branch032","primitives":[{"attributes":{"NORMAL":41,"POSITION":39,"TANGENT":40,"TEXCOORD_0":42},"indices":4,"material":0,"mode":4},{"attributes":{"NORMAL":45,"POSITION":43,"TANGENT":44,"TEXCOORD_0":46},"indices":47,"material":1,"mode":4}]}],"nodes":[{"children":[1,36,71,106,141],"name":"RoundTree"},{"children":[2],"mesh":0,"name":"Trunk2","translation":[0.0,4.466386795043945,0.0]},{"children":[3,4,5,6,7,8,9,10,11,12,13,14,15,16,17,18,19,20,21,22,23,24,25,26,27,28,29,30,31,32,33,34,35],"name":"Leaves01","translation":[0.0,6.5051374435424805,0.0]},{"name":"Leaves02","translation":[1.087045669555664,1.3877191543579102,0.0]},{"name":"Leaves11","translation":[1.6190072298049927,0.13877201080322266,0.0]},{"name":"Leaves03","translation":[-0.3931865692138672,1.4339771270751953,0.0]},{"name":"Leaves04","translation":[-1.0870475769042969,0.9251480102539063,0.0]},{"name":"Leaves05","translation":[-1.6652641296386719,-0.13876914978027344,0.0]},{"name":"Leaves06","translation":[-1.3183345794677734,-1.3877153396606445,0.0]},{"name":"Leaves07","translation":[0.04625701904296875,-1.8734169006347656,0.0]},{"name":"Leaves08","translation":[2.174093246459961,-2.243475914001465,0.0]},{"name":"Leaves09","translation":[-2.798564910888672,-1.3183298110961914,0.0]},{"name":"Leaves10","rotation":[-0.0827074721455574,-0.3621189594268799,-0.20673421025276184,0.9051465392112732],"translation":[-3.6357202529907227,3.1467161178588867,0.0]},{"name":"Leaves12","translation":[3.2561984062194824,3.8739166259765625,0.0]},{"name":"Leaves24","rotation":[0.0,0.4337988793849945,0.0,0.901009738445282],"translation":[0.6101315021514893,1.2839078903198242,-0.9680420160293579]},{"name":"Leaves25","rotation":[0.0,0.4337988793849945,0.0,0.901009738445282],"translation":[0.9418823719024658,0.03496074676513672,-1.3838838338851929]},{"name":"Leaves26","rotation":[0.0,0.4337988793849945,0.0,0.901009738445282],"translation":[-0.3129962384700775,1.3301658630371094,0.1890762746334076]},{"name":"Leaves27","rotation":[0.0,0.4337988793849945,0.0,0.901009738445282],"translation":[-0.7457137107849121,0.8213367462158203,0.7314771413803101]},{"name":"Leaves28","rotation":[0.0,0.4337988793849945,0.0,0.901009738445282],"translation":[-1.1063109636306763,-0.24258041381835938,1.1834771633148193]},{"name":"Leaves29","rotation":[0.0,0.4337988793849945,0.0,0.901009738445282],"translation":[-0.8899528384208679,-1.4915266036987305,0.912277340888977]},{"name":"Leaves30","rotation":[0.0,0.4337988793849945,0.0,0.901009738445282],"translation":[-0.03894290328025818,-1.9772281646728516,-0.15444296598434448]},{"name":"Leaves31","rotation":[0.0,0.4337988793849945,0.0,0.901009738445282],"translation":[1.2880545854568481,-2.347287178039551,-1.8178023099899292]},{"name":"Leaves32","rotation":[0.0,0.4337988793849945,0.0,0.901009738445282],"translation":[-1.8130794763565063,-1.4221410751342773,2.069394111633301]},{"name":"Leaves33","rotation":[-0.1642013043165207,0.06637886166572571,-0.15039114654064178,0.972632646560669],"translation":[-2.335160255432129,3.042904853820801,2.7238101959228516]},{"name":"Leaves34","rotation":[0.0,0.4337988793849945,0.0,0.901009738445282],"translation":[1.962895393371582,3.7701053619384766,-2.663699150085449]},{"name":"Leaves13","rotation":[-0.2683321535587311,-0.5133804678916931,0.21226060390472412,0.7870093584060669],"translation":[0.20342262089252472,1.7624082565307617,0.1476869285106659]},{"name":"Leaves14","rotation":[-0.2683321535587311,-0.5133804678916931,0.21226060390472412,0.7870093584060669],"translation":[0.48021721839904785,1.130147933959961,1.3166542053222656]},{"name":"Leaves15","rotation":[-0.2683321535587311,-0.5133804678916931,0.21226060390472412,0.7870093584060669],"translation":[-0.3658785820007324,0.8954648971557617,-0.9094468355178833]},{"name":"Leaves16","rotation":[-0.2683321535587311,-0.5133804678916931,0.21226060390472412,0.7870093584060669],"translation":[-0.6016570925712585,0.08277034759521484,-1.065292239189148]},{"name":"Leaves17","rotation":[-0.2683321535587311,-0.5133804678916931,0.21226060390472412,0.7870093584060669],"translation":[-0.7606480121612549,-1.0845584869384766,-0.7854387164115906]},{"name":"Leaves18","rotation":[-0.2683321535587311,-0.5133804678916931,0.21226060390472412,0.7870093584060669],"translation":[-0.5546784400939941,-1.8296165466308594,0.2550864517688751]},{"name":"Leaves19","rotation":[-0.2683321535587311,-0.5133804678916931,0.21226060390472412,0.7870093584060669],"translation":[-0.003894522786140442,-1.061436653137207,1.4173091650009155]},{"name":"Leaves20","rotation":[-0.2683321535587311,-0.5133804678916931,0.21226060390472412,0.7870093584060669],"translation":[0.832262396812439,-0.35599422454833984,3.2273266315460205]},{"name":"Leaves21","rotation":[-0.2683321535587311,-0.5133804678916931,0.21226060390472412,0.7870093584060669],"translation":[-1.1253340244293213,-2.6788454055786133,-0.8168548941612244]},{"name":"Leaves22","rotation":[-0.12497458606958389,-0.822704553604126,0.08413297683000565,0.5481424927711487],"translation":[-1.7073768377304077,0.2305307388305664,-4.2569451332092285]},{"name":"Leaves23","rotation":[-0.2683321535587311,-0.5133804678916931,0.21226060390472412,0.7870093584060669],"translation":[0.8880486488342285,4.9889020919799805,0.06150675565004349]},{"children":[37],"mesh":1,"name":"Branch012","rotation":[-0.02476687915623188,-0.04563317447900772,0.47636792063713074,0.8777117133140564],"scale":[1.0950000286102295,1.09499990940094,1.09499990940094],"translation":[-1.0296423435211182,7.439700126647949,-0.16539475321769714]},{"children":[38,39,40,41,42,43,44,45,46,47,48,49,50,51,52,53,54,55,56,57,58,59,60,61,62,63,64,65,66,67,68,69,70],"name":"Leaves012","scale":[0.4350000023841858,0.4350000023841858,0.4350000023841858],"translation":[0.06632757186889648,2.2861881256103516,0.0]},{"name":"Leaves022","translation":[1.0870451927185059,1.3877191543579102,0.0]},{"name":"Leaves112","translation":[1.6190075874328613,0.13877201080322266,0.0]},{"name":"Leaves032","translation":[-0.3931865692138672,1.433976173400879,0.0]},{"name":"Leaves042","translation":[-1.0870475769042969,0.9251480102539063,0.0]},{"name":"Leaves052","translation":[-1.6652641296386719,-0.13877010345458984,0.0]},{"name":"Leaves062","translation":[-1.3183355331420898,-1.387716293334961,0.0]},{"name":"Leaves072","translation":[0.04625678062438965,-1.8734169006347656,0.0]},{"name":"Leaves082","translation":[2.1740927696228027,-2.2434768676757813,0.0]},{"name":"Leaves092","translation":[-2.7985658645629883,-1.3183317184448242,0.0]},{"name":"Leaves102","rotation":[-0.0827074721455574,-0.3621189594268799,-0.20673422515392303,0.905146598815918],"translation":[-3.635721206665039,3.1467161178588867,0.0]},{"name":"Leaves122","translation":[3.256197452545166,3.873915672302246,0.0]},{"name":"Leaves242","rotation":[0.0,0.4337988793849945,0.0,0.901009738445282],"translation":[0.6101303100585938,1.2839069366455078,-0.9680420160293579]},{"name":"Leaves252","rotation":[0.0,0.4337988793849945,0.0,0.901009738445282],"translation":[0.9418816566467285,0.03496074676513672,-1.3838838338851929]},{"name":"Leaves262","rotation":[0.0,0.4337988793849945,0.0,0.901009738445282],"translation":[-0.31299686431884766,1.330164909362793,0.1890762746334076]},{"name":"Leaves272","rotation":[0.0,0.4337988793849945,0.0,0.901009738445282],"translation":[-0.7457137107849121,0.8213367462158203,0.7314771413803101]},{"name":"Leaves282","rotation":[0.0,0.4337988793849945,0.0,0.901009738445282],"translation":[-1.106311321258545,-0.24258041381835938,1.1834771633148193]},{"name":"Leaves292","rotation":[0.0,0.4337988793849945,0.0,0.901009738445282],"translation":[-0.8899526596069336,-1.4915266036987305,0.912277340888977]},{"name":"Leaves302","rotation":[0.0,0.4337988793849945,0.0,0.901009738445282],"translation":[-0.03894376754760742,-1.977229118347168,-0.15444296598434448]},{"name":"Leaves312","rotation":[0.0,0.4337988793849945,0.0,0.901009738445282],"translation":[1.2880539894104004,-2.347288131713867,-1.8178023099899292]},{"name":"Leaves322","rotation":[0.0,0.4337988793849945,0.0,0.901009738445282],"translation":[-1.8130803108215332,-1.4221410751342773,2.069394111633301]},{"name":"Leaves332","rotation":[-0.1642013043165207,0.0663788691163063,-0.15039117634296417,0.972632646560669],"translation":[-2.335160255432129,3.042902946472168,2.7238101959228516]},{"name":"Leaves342","rotation":[0.0,0.4337988793849945,0.0,0.901009738445282],"translation":[1.9628958702087402,3.770106315612793,-2.663699150085449]},{"name":"Leaves132","rotation":[-0.2683321535587311,-0.5133804678916931,0.21226060390472412,0.7870093584060669],"translation":[0.20342206954956055,1.7624073028564453,0.1476869285106659]},{"name":"Leaves142","rotation":[-0.2683321535587311,-0.5133804678916931,0.21226060390472412,0.7870093584060669],"translation":[0.48021697998046875,1.130147933959961,1.3166542053222656]},{"name":"Leaves152","rotation":[-0.2683321535587311,-0.5133804678916931,0.21226060390472412,0.7870093584060669],"translation":[-0.3658785820007324,0.8954648971557617,-0.9094468355178833]},{"name":"Leaves162","rotation":[-0.2683321535587311,-0.5133804678916931,0.21226060390472412,0.7870093584060669],"translation":[-0.6016578674316406,0.08276939392089844,-1.065292239189148]},{"name":"Leaves172","rotation":[-0.2683321535587311,-0.5133804678916931,0.21226060390472412,0.7870093584060669],"translation":[-0.7606487274169922,-1.084559440612793,-0.7854387164115906]},{"name":"Leaves182","rotation":[-0.2683321535587311,-0.5133804678916931,0.21226060390472412,0.7870093584060669],"translation":[-0.5546784400939941,-1.8296175003051758,0.2550864517688751]},{"name":"Leaves192","rotation":[-0.2683321535587311,-0.5133804678916931,0.21226060390472412,0.7870093584060669],"translation":[-0.003895282745361328,-1.0614376068115234,1.4173091650009155]},{"name":"Leaves202","rotation":[-0.2683321535587311,-0.5133804678916931,0.21226060390472412,0.7870093584060669],"translation":[0.8322625160217285,-0.35599422454833984,3.2273266315460205]},{"name":"Leaves212","rotation":[-0.2683321535587311,-0.5133804678916931,0.21226060390472412,0.7870093584060669],"translation":[-1.1253347396850586,-2.6788463592529297,-0.8168548941612244]},{"name":"Leaves222","rotation":[-0.12497458606958389,-0.822704553604126,0.08413296192884445,0.5481424927711487],"translation":[-1.7073779106140137,0.2305307388305664,-4.2569451332092285]},{"name":"Leaves232","rotation":[-0.2683321535587311,-0.5133804678916931,0.21226060390472412,0.7870093584060669],"translation":[0.8880481719970703,4.9889020919799805,0.06150675565004349]},{"children":[72],"mesh":2,"name":"Branch022","rotation":[0.25194811820983887,0.584861695766449,0.32540008425712585,0.698980450630188],"scale":[0.8899999856948853,0.89000004529953,0.8899999856948853],"translation":[-0.266238808631897,6.910242557525635,1.2634599208831787]},{"children":[73,74,75,76,77,78,79,80,81,82,83,84,85,86,87,88,89,90,91,92,93,94,95,96,97,98,99,100,101,102,103,104,105],"name":"Leaves013","scale":[0.699999988079071,0.699999988079071,0.699999988079071],"translation":[0.06632757186889648,2.2861881256103516,0.0]},{"name":"Leaves023","translation":[1.0870451927185059,1.3877191543579102,0.0]},{"name":"Leaves113","translation":[1.6190075874328613,0.13877201080322266,0.0]},{"name":"Leaves033","translation":[-0.3931865692138672,1.433976173400879,0.0]},{"name":"Leaves043","translation":[-1.0870475769042969,0.9251480102539063,0.0]},{"name":"Leaves053","translation":[-1.6652641296386719,-0.13877010345458984,0.0]},{"name":"Leaves063","translation":[-1.3183355331420898,-1.387716293334961,0.0]},{"name":"Leaves073","translation":[0.04625678062438965,-1.8734169006347656,0.0]},{"name":"Leaves083","translation":[2.1740927696228027,-2.2434768676757813,0.0]},{"name":"Leaves093","translation":[-2.7985658645629883,-1.3183317184448242,0.0]},{"name":"Leaves103","rotation":[-0.0827074721455574,-0.3621189594268799,-0.20673422515392303,0.905146598815918],"translation":[-3.635721206665039,3.1467161178588867,0.0]},{"name":"Leaves123","translation":[3.256197452545166,3.873915672302246,0.0]},{"name":"Leaves243","rotation":[0.0,0.4337988793849945,0.0,0.901009738445282],"translation":[0.6101303100585938,1.2839069366455078,-0.9680420160293579]},{"name":"Leaves253","rotation":[0.0,0.4337988793849945,0.0,0.901009738445282],"translation":[0.9418816566467285,0.03496074676513672,-1.3838838338851929]},{"name":"Leaves263","rotation":[0.0,0.4337988793849945,0.0,0.901009738445282],"translation":[-0.31299686431884766,1.330164909362793,0.1890762746334076]},{"name":"Leaves273","rotation":[0.0,0.4337988793849945,0.0,0.901009738445282],"translation":[-0.7457137107849121,0.8213367462158203,0.7314771413803101]},{"name":"Leaves283","rotation":[0.0,0.4337988793849945,0.0,0.901009738445282],"translation":[-1.106311321258545,-0.24258041381835938,1.1834771633148193]},{"name":"Leaves293","rotation":[0.0,0.4337988793849945,0.0,0.901009738445282],"translation":[-0.8899526596069336,-1.4915266036987305,0.912277340888977]},{"name":"Leaves303","rotation":[0.0,0.4337988793849945,0.0,0.901009738445282],"translation":[-0.03894376754760742,-1.977229118347168,-0.15444296598434448]},{"name":"Leaves313","rotation":[0.0,0.4337988793849945,0.0,0.901009738445282],"translation":[1.2880539894104004,-2.347288131713867,-1.8178023099899292]},{"name":"Leaves323","rotation":[0.0,0.4337988793849945,0.0,0.901009738445282],"translation":[-1.8130803108215332,-1.4221410751342773,2.069394111633301]},{"name":"Leaves333","rotation":[-0.1642013043165207,0.0663788691163063,-0.15039117634296417,0.972632646560669],"translation":[-2.335160255432129,3.042902946472168,2.7238101959228516]},{"name":"Leaves343","rotation":[0.0,0.4337988793849945,0.0,0.901009738445282],"translation":[1.9628958702087402,3.770106315612793,-2.663699150085449]},{"name":"Leaves133","rotation":[-0.2683321535587311,-0.5133804678916931,0.21226060390472412,0.7870093584060669],"translation":[0.20342206954956055,1.7624073028564453,0.1476869285106659]},{"name":"Leaves143","rotation":[-0.2683321535587311,-0.5133804678916931,0.21226060390472412,0.7870093584060669],"translation":[0.48021697998046875,1.130147933959961,1.3166542053222656]},{"name":"Leaves153","rotation":[-0.2683321535587311,-0.5133804678916931,0.21226060390472412,0.7870093584060669],"translation":[-0.3658785820007324,0.8954648971557617,-0.9094468355178833]},{"name":"Leaves163","rotation":[-0.2683321535587311,-0.5133804678916931,0.21226060390472412,0.7870093584060669],"translation":[-0.6016578674316406,0.08276939392089844,-1.065292239189148]},{"name":"Leaves173","rotation":[-0.2683321535587311,-0.5133804678916931,0.21226060390472412,0.7870093584060669],"translation":[-0.7606487274169922,-1.084559440612793,-0.7854387164115906]},{"name":"Leaves183","rotation":[-0.2683321535587311,-0.5133804678916931,0.21226060390472412,0.7870093584060669],"translation":[-0.5546784400939941,-1.8296175003051758,0.2550864517688751]},{"name":"Leaves193","rotation":[-0.2683321535587311,-0.5133804678916931,0.21226060390472412,0.7870093584060669],"translation":[-0.003895282745361328,-1.0614376068115234,1.4173091650009155]},{"name":"Leaves203","rotation":[-0.2683321535587311,-0.5133804678916931,0.21226060390472412,0.7870093584060669],"translation":[0.8322625160217285,-0.35599422454833984,3.2273266315460205]},{"name":"Leaves213","rotation":[-0.2683321535587311,-0.5133804678916931,0.21226060390472412,0.7870093584060669],"translation":[-1.1253347396850586,-2.6788463592529297,-0.8168548941612244]},{"name":"Leaves223","rotation":[-0.12497458606958389,-0.822704553604126,0.08413296192884445,0.5481424927711487],"translation":[-1.7073779106140137,0.2305307388305664,-4.2569451332092285]},{"name":"Leaves233","rotation":[-0.2683321535587311,-0.5133804678916931,0.21226060390472412,0.7870093584060669],"translation":[0.8880481719970703,4.9889020919799805,0.06150675565004349]},{"children":[107],"mesh":3,"name":"Branch042","rotation":[0.39520102739334106,0.8842160701751709,0.11480102688074112,0.22090454399585724],"scale":[0.565000057220459,0.565000057220459,0.565000057220459],"translation":[0.8046725988388062,5.386391639709473,0.5278352499008179]},{"children":[108,109,110,111,112,113,114,115,116,117,118,119,120,121,122,123,124,125,126,127,128,129,130,131,132,133,134,135,136,137,138,139,140],"name":"Leaves014","scale":[0.5400000810623169,0.5400000810623169,0.5400000214576721],"translation":[0.06632757186889648,2.2861881256103516,0.0]},{"name":"Leaves024","translation":[1.0870451927185059,1.3877191543579102,0.0]},{"name":"Leaves114","translation":[1.6190075874328613,0.13877201080322266,0.0]},{"name":"Leaves034","translation":[-0.3931865692138672,1.433976173400879,0.0]},{"name":"Leaves044","translation":[-1.0870475769042969,0.9251480102539063,0.0]},{"name":"Leaves054","translation":[-1.6652641296386719,-0.13877010345458984,0.0]},{"name":"Leaves064","translation":[-1.3183355331420898,-1.387716293334961,0.0]},{"name":"Leaves074","translation":[0.04625678062438965,-1.8734169006347656,0.0]},{"name":"Leaves084","translation":[2.1740927696228027,-2.2434768676757813,0.0]},{"name":"Leaves094","translation":[-2.7985658645629883,-1.3183317184448242,0.0]},{"name":"Leaves104","rotation":[-0.0827074721455574,-0.3621189594268799,-0.20673422515392303,0.905146598815918],"translation":[-3.635721206665039,3.1467161178588867,0.0]},{"name":"Leaves124","translation":[3.256197452545166,3.873915672302246,0.0]},{"name":"Leaves244","rotation":[0.0,0.4337988793849945,0.0,0.901009738445282],"translation":[0.6101303100585938,1.2839069366455078,-0.9680420160293579]},{"name":"Leaves254","rotation":[0.0,0.4337988793849945,0.0,0.901009738445282],"translation":[0.9418816566467285,0.03496074676513672,-1.3838838338851929]},{"name":"Leaves264","rotation":[0.0,0.4337988793849945,0.0,0.901009738445282],"translation":[-0.31299686431884766,1.330164909362793,0.1890762746334076]},{"name":"Leaves274","rotation":[0.0,0.4337988793849945,0.0,0.901009738445282],"translation":[-0.7457137107849121,0.8213367462158203,0.7314771413803101]},{"name":"Leaves284","rotation":[0.0,0.4337988793849945,0.0,0.901009738445282],"translation":[-1.106311321258545,-0.24258041381835938,1.1834771633148193]},{"name":"Leaves294","rotation":[0.0,0.4337988793849945,0.0,0.901009738445282],"translation":[-0.8899526596069336,-1.4915266036987305,0.912277340888977]},{"name":"Leaves304","rotation":[0.0,0.4337988793849945,0.0,0.901009738445282],"translation":[-0.03894376754760742,-1.977229118347168,-0.15444296598434448]},{"name":"Leaves314","rotation":[0.0,0.4337988793849945,0.0,0.901009738445282],"translation":[1.2880539894104004,-2.347288131713867,-1.8178023099899292]},{"name":"Leaves324","rotation":[0.0,0.4337988793849945,0.0,0.901009738445282],"translation":[-1.8130803108215332,-1.4221410751342773,2.069394111633301]},{"name":"Leaves334","rotation":[-0.1642013043165207,0.0663788691163063,-0.15039117634296417,0.972632646560669],"translation":[-2.335160255432129,3.042902946472168,2.7238101959228516]},{"name":"Leaves344","rotation":[0.0,0.4337988793849945,0.0,0.901009738445282],"translation":[1.9628958702087402,3.770106315612793,-2.663699150085449]},{"name":"Leaves134","rotation":[-0.2683321535587311,-0.5133804678916931,0.21226060390472412,0.7870093584060669],"translation":[0.20342206954956055,1.7624073028564453,0.1476869285106659]},{"name":"Leaves144","rotation":[-0.2683321535587311,-0.5133804678916931,0.21226060390472412,0.7870093584060669],"translation":[0.48021697998046875,1.130147933959961,1.3166542053222656]},{"name":"Leaves154","rotation":[-0.2683321535587311,-0.5133804678916931,0.21226060390472412,0.7870093584060669],"translation":[-0.3658785820007324,0.8954648971557617,-0.9094468355178833]},{"name":"Leaves164","rotation":[-0.2683321535587311,-0.5133804678916931,0.21226060390472412,0.7870093584060669],"translation":[-0.6016578674316406,0.08276939392089844,-1.065292239189148]},{"name":"Leaves174","rotation":[-0.2683321535587311,-0.5133804678916931,0.21226060390472412,0.7870093584060669],"translation":[-0.7606487274169922,-1.084559440612793,-0.7854387164115906]},{"name":"Leaves184","rotation":[-0.2683321535587311,-0.5133804678916931,0.21226060390472412,0.7870093584060669],"translation":[-0.5546784400939941,-1.8296175003051758,0.2550864517688751]},{"name":"Leaves194","rotation":[-0.2683321535587311,-0.5133804678916931,0.21226060390472412,0.7870093584060669],"translation":[-0.003895282745361328,-1.0614376068115234,1.4173091650009155]},{"name":"Leaves204","rotation":[-0.2683321535587311,-0.5133804678916931,0.21226060390472412,0.7870093584060669],"translation":[0.8322625160217285,-0.35599422454833984,3.2273266315460205]},{"name":"Leaves214","rotation":[-0.2683321535587311,-0.5133804678916931,0.21226060390472412,0.7870093584060669],"translation":[-1.1253347396850586,-2.6788463592529297,-0.8168548941612244]},{"name":"Leaves224","rotation":[-0.12497458606958389,-0.822704553604126,0.08413296192884445,0.5481424927711487],"translation":[-1.7073779106140137,0.2305307388305664,-4.2569451332092285]},{"name":"Leaves234","rotation":[-0.2683321535587311,-0.5133804678916931,0.21226060390472412,0.7870093584060669],"translation":[0.8880481719970703,4.9889020919799805,0.06150675565004349]},{"children":[142],"mesh":4,"name":"Branch032","rotation":[0.3807803690433502,0.8295775055885315,-0.15610723197460175,-0.3774096965789795],"translation":[0.4704173803329468,6.392330646514893,-0.545053243637085]},{"children":[143,144,145,146,147,148,149,150,151,152,153,154,155,156,157,158,159,160,161,162,163,164,165,166,167,168,169,170,171,172,173,174,175],"name":"Leaves015","scale":[0.5400000810623169,0.5400000810623169,0.5400000214576721],"translation":[0.06632757186889648,2.2861881256103516,0.0]},{"name":"Leaves025","translation":[1.0870451927185059,1.3877191543579102,0.0]},{"name":"Leaves115","translation":[1.6190075874328613,0.13877201080322266,0.0]},{"name":"Leaves035","translation":[-0.3931865692138672,1.433976173400879,0.0]},{"name":"Leaves045","translation":[-1.0870475769042969,0.9251480102539063,0.0]},{"name":"Leaves055","translation":[-1.6652641296386719,-0.13877010345458984,0.0]},{"name":"Leaves065","translation":[-1.3183355331420898,-1.387716293334961,0.0]},{"name":"Leaves075","translation":[0.04625678062438965,-1.8734169006347656,0.0]},{"name":"Leaves085","translation":[2.1740927696228027,-2.2434768676757813,0.0]},{"name":"Leaves095","translation":[-2.7985658645629883,-1.3183317184448242,0.0]},{"name":"Leaves105","rotation":[-0.0827074721455574,-0.3621189594268799,-0.20673422515392303,0.905146598815918],"translation":[-3.635721206665039,3.1467161178588867,0.0]},{"name":"Leaves125","translation":[3.256197452545166,3.873915672302246,0.0]},{"name":"Leaves245","rotation":[0.0,0.4337988793849945,0.0,0.901009738445282],"translation":[0.6101303100585938,1.2839069366455078,-0.9680420160293579]},{"name":"Leaves255","rotation":[0.0,0.4337988793849945,0.0,0.901009738445282],"translation":[0.9418816566467285,0.03496074676513672,-1.3838838338851929]},{"name":"Leaves265","rotation":[0.0,0.4337988793849945,0.0,0.901009738445282],"translation":[-0.31299686431884766,1.330164909362793,0.1890762746334076]},{"name":"Leaves275","rotation":[0.0,0.4337988793849945,0.0,0.901009738445282],"translation":[-0.7457137107849121,0.8213367462158203,0.7314771413803101]},{"name":"Leaves285","rotation":[0.0,0.4337988793849945,0.0,0.901009738445282],"translation":[-1.106311321258545,-0.24258041381835938,1.1834771633148193]},{"name":"Leaves295","rotation":[0.0,0.4337988793849945,0.0,0.901009738445282],"translation":[-0.8899526596069336,-1.4915266036987305,0.912277340888977]},{"name":"Leaves305","rotation":[0.0,0.4337988793849945,0.0,0.901009738445282],"translation":[-0.03894376754760742,-1.977229118347168,-0.15444296598434448]},{"name":"Leaves315","rotation":[0.0,0.4337988793849945,0.0,0.901009738445282],"translation":[1.2880539894104004,-2.347288131713867,-1.8178023099899292]},{"name":"Leaves325","rotation":[0.0,0.4337988793849945,0.0,0.901009738445282],"translation":[-1.8130803108215332,-1.4221410751342773,2.069394111633301]},{"name":"Leaves335","rotation":[-0.1642013043165207,0.0663788691163063,-0.15039117634296417,0.972632646560669],"translation":[-2.335160255432129,3.042902946472168,2.7238101959228516]},{"name":"Leaves345","rotation":[0.0,0.4337988793849945,0.0,0.901009738445282],"translation":[1.9628958702087402,3.770106315612793,-2.663699150085449]},{"name":"Leaves135","rotation":[-0.2683321535587311,-0.5133804678916931,0.21226060390472412,0.7870093584060669],"translation":[0.20342206954956055,1.7624073028564453,0.1476869285106659]},{"name":"Leaves145","rotation":[-0.2683321535587311,-0.5133804678916931,0.21226060390472412,0.7870093584060669],"translation":[0.48021697998046875,1.130147933959961,1.3166542053222656]},{"name":"Leaves155","rotation":[-0.2683321535587311,-0.5133804678916931,0.21226060390472412,0.7870093584060669],"translation":[-0.3658785820007324,0.8954648971557617,-0.9094468355178833]},{"name":"Leaves165","rotation":[-0.2683321535587311,-0.5133804678916931,0.21226060390472412,0.7870093584060669],"translation":[-0.6016578674316406,0.08276939392089844,-1.065292239189148]},{"name":"Leaves175","rotation":[-0.2683321535587311,-0.5133804678916931,0.21226060390472412,0.7870093584060669],"translation":[-0.7606487274169922,-1.084559440612793,-0.7854387164115906]},{"name":"Leaves185","rotation":[-0.2683321535587311,-0.5133804678916931,0.21226060390472412,0.7870093584060669],"translation":[-0.5546784400939941,-1.8296175003051758,0.2550864517688751]},{"name":"Leaves195","rotation":[-0.2683321535587311,-0.5133804678916931,0.21226060390472412,0.7870093584060669],"translation":[-0.003895282745361328,-1.0614376068115234,1.4173091650009155]},{"name":"Leaves205","rotation":[-0.2683321535587311,-0.5133804678916931,0.21226060390472412,0.7870093584060669],"translation":[0.8322625160217285,-0.35599422454833984,3.2273266315460205]},{"name":"Leaves215","rotation":[-0.2683321535587311,-0.5133804678916931,0.21226060390472412,0.7870093584060669],"translation":[-1.1253347396850586,-2.6788463592529297,-0.8168548941612244]},{"name":"Leaves225","rotation":[-0.12497458606958389,-0.822704553604126,0.08413296192884445,0.5481424927711487],"translation":[-1.7073779106140137,0.2305307388305664,-4.2569451332092285]},{"name":"Leaves235","rotation":[-0.2683321535587311,-0.5133804678916931,0.21226060390472412,0.7870093584060669],"translation":[0.8880481719970703,4.9889020919799805,0.06150675565004349]}],"scene":0,"scenes":[{"nodes":[0]}]}