{"accessors":[{"bufferView":0,"componentType":5126,"count":330,"max":[0.3627942204475403,0.30790379643440247,0.3119855523109436],"min":[-0.43211862444877625,-0.4538014233112335,-0.4512229859828949],"normalized":false,"type":"VEC3"},{"bufferView":1,"componentType":5126,"count":330,"max":[0.9825175404548645,0.1316043883562088,0.9659137725830078,1.0],"min":[-0.9999843835830688,-0.9242303371429443,-0.7071391344070435,1.0],"normalized":false,"type":"VEC4"},{"bufferView":2,"componentType":5126,"count":330,"max":[0.9244169592857361,0.7071022987365723,0.707063615322113],"min":[-0.9537457823753357,-0.9659374952316284,-0.9842241406440735],"normalized":false,"type":"VEC3"},{"bufferView":3,"componentType":5126,"count":330,"max":[1.0,0.8878806233406067],"min":[0.0,0.15204206109046936],"normalized":false,"type":"VEC2"},{"bufferView":4,"componentType":5123,"count":330,"max":[329],"min":[0],"normalized":false,"type":"SCALAR"}],"asset":{"generator":"Godot Engine v4.7.2.stable.official@ed1daf0bf001b61586d9930840f2f1394092c079","version":"2.0"},"bufferViews":[{"buffer":0,"byteLength":3960,"byteStride":12,"target":34962},{"buffer":0,"byteLength":5280,"byteOffset":3960,"byteStride":16,"target":34962},{"buffer":0,"byteLength":3960,"byteOffset":9240,"byteStride":12,"target":34962},{"buffer":0,"byteLength":2640,"byteOffset":13200,"byteStride":8,"target":34962},{"buffer":0,"byteLength":660,"byteOffset":15840,"target":34963}],"buffers":[{"byteLength":16500,"uri":"planting_spot0.bin"}],"extensions":{"OMI_physics_shape":{"shapes":[{"cylinder":{"height":1.2558746337890625,"radius":0.732421875},"type":"cylinder"}]}},"extensionsUsed":["GODOT_single_root","OMI_physics_body","OMI_physics_shape"],"images":[{"name":"planting_spot","uri":"textures%2Fplanting_spot.png"}],"materials":[{"pbrMetallicRoughness":{"baseColorFactor":[0.07323895394802094,0.05081605538725853,0.01397018413990736,1.0],"metallicFactor":0.0,"metallicRoughnessTexture":{"index":0},"roughnessFactor":1.0}}],"meshes":[{"name":"SmallDirtPile2","primitives":[{"attributes":{"NORMAL":2,"POSITION":0,"TANGENT":1,"TEXCOORD_0":3},"indices":4,"material":0,"mode":4}]},{"name":"SmallDirtPile23","primitives":[{"attributes":{"NORMAL":2,"POSITION":0,"TANGENT":1,"TEXCOORD_0":3},"indices":4,"material":0,"mode":4}]},{"name":"SmallDirtPile32","primitives":[{"attributes":{"NORMAL":2,"POSITION":0,"TANGENT":1,"TEXCOORD_0":3},"indices":4,"material":0,"mode":4}]},{"name":"SmallDirtPile42","primitives":[{"attributes":{"NORMAL":2,"POSITION":0,"TANGENT":1,"TEXCOORD_0":3},"indices":4,"material":0,"mode":4}]},{"name":"SmallDirtPile52","primitives":[{"attributes":{"NORMAL":2,"POSITION":0,"TANGENT":1,"TEXCOORD_0":3},"indices":4,"material":0,"mode":4}]},{"name":"SmallDirtPile62","primitives":[{"attributes":{"NORMAL":2,"POSITION":0,"TANGENT":1,"TEXCOORD_0":3},"indices":4,"material":0,"mode":4}]}],"nodes":[{"children":[1,8,15,22,29,36,43,45],"name":"PlantingSpot"},{"children":[2,3,4,5,6,7],"mesh":0,"name":"SmallDirtPile2","rotation":[0.8445908427238464,-0.13554733991622925,0.31254854798316956,0.4130455553531647],"translation":[0.4663810729980469,-0.12841796875,-0.327608585357666]},{"name":"CSGBox3D","rotation":[0.15689438581466675,0.0993339866399765,-0.11515810340642929,0.9758358001708984],"translation":[-0.7336416244506836,0.0,0.0]},{"name":"CSGBox3D4","rotation":[0.18537168204784393,0.010974210686981678,0.371597021818161,0.909633219242096],"translation":[-0.4530653655529022,-0.5260135531425476,-0.12073495984077454]},{"name":"CSGBox3D5","rotation":[0.19313709437847137,-0.6671654582023621,0.316900372505188,0.6458811163902283],"translation":[0.1610286384820938,-0.11866410076618195,-0.7412327527999878]},{"name":"CSGBox3D6","rotation":[-0.6479525566101074,0.6504907011985779,-0.0810685008764267,0.3878752589225769],"translation":[0.07762155681848526,-0.6105690002441406,-0.3028348684310913]},{"name":"CSGBox3D2","rotation":[0.3393031358718872,-0.19373226165771484,0.015956226736307144,0.9203730821609497],"translation":[0.6395978927612305,-0.144073486328125,-0.11580657958984375]},{"name":"CSGBox3D3","rotation":[0.15700064599514008,-0.3577841818332672,0.5613347291946411,0.7295509576797485],"translation":[0.022804200649261475,0.2036437839269638,0.22175025939941406]},{"children":[9,10,11,12,13,14],"mesh":1,"name":"SmallDirtPile23","rotation":[-0.13930274546146393,-0.4316965937614441,0.8897275328636169,-0.051163725554943085],"translation":[0.05762481689453125,-0.12841796875,-0.40579986572265625]},{"name":"CSGBox3D7","rotation":[0.15689438581466675,0.0993339866399765,-0.11515810340642929,0.9758358001708984],"translation":[-0.7336416244506836,0.0,0.0]},{"name":"CSGBox3D42","rotation":[0.18537168204784393,0.010974210686981678,0.371597021818161,0.909633219242096],"translation":[-0.4530653655529022,-0.5260135531425476,-0.12073495984077454]},{"name":"CSGBox3D52","rotation":[0.19313709437847137,-0.6671654582023621,0.316900372505188,0.6458811163902283],"translation":[0.1610286384820938,-0.11866410076618195,-0.7412327527999878]},{"name":"CSGBox3D62","rotation":[-0.6479525566101074,0.6504907011985779,-0.0810685008764267,0.3878752589225769],"translation":[0.07762155681848526,-0.6105690002441406,-0.3028348684310913]},{"name":"CSGBox3D22","rotation":[0.3393031358718872,-0.19373226165771484,0.015956226736307144,0.9203730821609497],"translation":[0.6395978927612305,-0.144073486328125,-0.11580657958984375]},{"name":"CSGBox3D32","rotation":[0.15700064599514008,-0.3577841818332672,0.5613347291946411,0.7295509576797485],"translation":[0.022804200649261475,0.2036437839269638,0.22175025939941406]},{"children":[16,17,18,19,20,21],"mesh":2,"name":"SmallDirtPile32","rotation":[-0.3978285789489746,-0.39689838886260986,0.8079311847686768,-0.17734527587890625],"translation":[-0.4870576858520508,-0.12841796875,-0.35039234161376953]},{"name":"CSGBox3D8","rotation":[0.15689438581466675,0.0993339866399765,-0.11515810340642929,0.9758358001708984],"translation":[-0.7336416244506836,0.0,0.0]},{"name":"CSGBox3D43","rotation":[0.18537168204784393,0.010974210686981678,0.371597021818161,0.909633219242096],"translation":[-0.4530653655529022,-0.5260135531425476,-0.12073495984077454]},{"name":"CSGBox3D53","rotation":[0.19313709437847137,-0.6671654582023621,0.316900372505188,0.6458811163902283],"translation":[0.1610286384820938,-0.11866410076618195,-0.7412327527999878]},{"name":"CSGBox3D63","rotation":[-0.6479525566101074,0.6504907011985779,-0.0810685008764267,0.3878752589225769],"translation":[0.07762155681848526,-0.6105690002441406,-0.3028348684310913]},{"name":"CSGBox3D23","rotation":[0.3393031358718872,-0.19373226165771484,0.015956226736307144,0.9203730821609497],"translation":[0.6395978927612305,-0.144073486328125,-0.11580657958984375]},{"name":"CSGBox3D33","rotation":[0.15700064599514008,-0.3577841818332672,0.5613347291946411,0.7295509576797485],"translation":[0.022804200649261475,0.2036437839269638,0.22175025939941406]},{"children":[23,24,25,26,27,28],"mesh":3,"name":"SmallDirtPile42","rotation":[0.4390536844730377,-0.4499768316745758,0.7738869190216064,0.07649683207273483],"translation":[-0.500798225402832,-0.12841796875,0.2542276382446289]},{"name":"CSGBox3D9","rotation":[0.15689438581466675,0.0993339866399765,-0.11515810340642929,0.9758358001708984],"translation":[-0.7336416244506836,0.0,0.0]},{"name":"CSGBox3D44","rotation":[0.18537168204784393,0.010974210686981678,0.371597021818161,0.909633219242096],"translation":[-0.4530653655529022,-0.5260135531425476,-0.12073495984077454]},{"name":"CSGBox3D54","rotation":[0.19313709437847137,-0.6671654582023621,0.316900372505188,0.6458811163902283],"translation":[0.1610286384820938,-0.11866410076618195,-0.7412327527999878]},{"name":"CSGBox3D64","rotation":[-0.6479525566101074,0.6504907011985779,-0.0810685008764267,0.3878752589225769],"translation":[0.07762155681848526,-0.6105690002441406,-0.3028348684310913]},{"name":"CSGBox3D24","rotation":[0.3393031358718872,-0.19373226165771484,0.015956226736307144,0.9203730821609497],"translation":[0.6395978927612305,-0.144073486328125,-0.11580657958984375]},{"name":"CSGBox3D34","rotation":[0.15700064599514008,-0.3577841818332672,0.5613347291946411,0.7295509576797485],"translation":[0.022804200649261475,0.2036437839269638,0.22175025939941406]},{"children":[30,31,32,33,34,35],"mesh":4,"name":"SmallDirtPile52","rotation":[0.7995122671127319,-0.32804545760154724,0.3904474973678589,0.31735959649086],"translation":[0.04234027862548828,-0.12841796875,0.3809528350830078]},{"name":"CSGBox3D10","rotation":[0.15689438581466675,0.0993339866399765,-0.11515810340642929,0.9758358001708984],"translation":[-0.7336416244506836,0.0,0.0]},{"name":"CSGBox3D45","rotation":[0.18537168204784393,0.010974210686981678,0.371597021818161,0.909633219242096],"translation":[-0.4530653655529022,-0.5260135531425476,-0.12073495984077454]},{"name":"CSGBox3D55","rotation":[0.19313709437847137,-0.6671654582023621,0.316900372505188,0.6458811163902283],"translation":[0.1610286384820938,-0.11866410076618195,-0.7412327527999878]},{"name":"CSGBox3D65","rotation":[-0.6479525566101074,0.6504907011985779,-0.0810685008764267,0.3878752589225769],"translation":[0.07762155681848526,-0.6105690002441406,-0.3028348684310913]},{"name":"CSGBox3D25","rotation":[0.3393031358718872,-0.19373226165771484,0.015956226736307144,0.9203730821609497],"translation":[0.6395978927612305,-0.144073486328125,-0.11580657958984375]},{"name":"CSGBox3D35","rotation":[0.15700064599514008,-0.3577841818332672,0.5613347291946411,0.7295509576797485],"translation":[0.022804200649261475,0.2036437839269638,0.22175025939941406]},{"children":[37,38,39,40,41,42],"mesh":5,"name":"SmallDirtPile62","rotation":[-0.46358034014701843,-0.49088963866233826,0.7010825276374817,-0.22935552895069122],"translation":[0.3943662643432617,-0.12841796875,0.30681896209716797]},{"name":"CSGBox3D11","rotation":[0.15689438581466675,0.0993339866399765,-0.11515810340642929,0.9758358001708984],"translation":[-0.7336416244506836,0.0,0.0]},{"name":"CSGBox3D46","rotation":[0.18537168204784393,0.010974210686981678,0.371597021818161,0.909633219242096],"translation":[-0.4530653655529022,-0.5260135531425476,-0.12073495984077454]},{"name":"CSGBox3D56","rotation":[0.19313709437847137,-0.6671654582023621,0.316900372505188,0.6458811163902283],"translation":[0.1610286384820938,-0.11866410076618195,-0.7412327527999878]},{"name":"CSGBox3D66","rotation":[-0.6479525566101074,0.6504907011985779,-0.0810685008764267,0.3878752589225769],"translation":[0.07762155681848526,-0.6105690002441406,-0.3028348684310913]},{"name":"CSGBox3D26","rotation":[0.3393031358718872,-0.19373226165771484,0.015956226736307144,0.9203730821609497],"translation":[0.6395978927612305,-0.144073486328125,-0.11580657958984375]},{"name":"CSGBox3D36","rotation":[0.15700064599514008,-0.3577841818332672,0.5613347291946411,0.7295509576797485],"translation":[0.022804200649261475,0.2036437839269638,0.22175025939941406]},{"children":[44],"extensions":{"OMI_physics_body":{"trigger":{"nodes":[44.0]}}},"name":"Area3D"},{"extensions":{"OMI_physics_body":{"trigger":null}},"name":"CollisionShape3D","translation":[0.0,0.5868606567382813,0.0]},{"name":"MeshInstance3D"}],"samplers":[{"magFilter":9729,"minFilter":9987,"wrapS":10497,"wrapT":10497}],"scene":0,"scenes":[{"nodes":[0]}],"textures":[{"sampler":0,"source":0}]}